<svg width="87" height="24" viewBox="0 0 87 24" fill="none" xmlns="http://www.w3.org/2000/svg">
    <path d="M0.432861 18.659C0.432861 16.9644 0.958727 15.7217 2.01046 14.9308C3.0725 14.14 4.46966 13.7446 6.20192 13.7446C6.7381 13.7446 7.31037 13.7703 7.91873 13.8217C8.52708 13.8627 9.11997 13.9346 9.69739 14.0373V12.4044C9.69739 11.2233 9.43446 10.3914 8.90859 9.90868C8.39304 9.41571 7.70219 9.16922 6.83606 9.16922C5.98024 9.16922 5.12442 9.2976 4.26859 9.55435C3.41277 9.80084 2.57242 10.1089 1.74753 10.4787C1.55162 10.3144 1.37633 10.0679 1.22166 9.73922C1.06699 9.4003 0.98966 9.08706 0.98966 8.79949C1.74237 8.47084 2.65491 8.14733 3.72726 7.82895C4.79962 7.51057 5.88228 7.35138 6.97526 7.35138C8.5941 7.35138 9.79019 7.793 10.5635 8.67625C11.3369 9.55949 11.7235 10.8227 11.7235 12.466V18.813C11.7235 19.4806 11.7699 20.066 11.8627 20.5692C11.9555 21.0725 12.1978 21.5089 12.5897 21.8787C12.5072 22.0841 12.3731 22.2946 12.1875 22.5103C12.0122 22.7157 11.806 22.8698 11.5689 22.9725C11.043 22.7465 10.6357 22.4487 10.347 22.0789C10.0686 21.6989 9.88299 21.2522 9.79019 20.7387C9.21277 21.3035 8.50646 21.8427 7.67126 22.3562C6.84637 22.8698 5.91321 23.1265 4.87179 23.1265C3.88193 23.1265 3.05704 22.9057 2.39713 22.4641C1.73722 22.0225 1.24228 21.4627 0.912328 20.7849C0.592684 20.0968 0.432861 19.3881 0.432861 18.659ZM2.58273 18.5049C2.58273 19.2854 2.7941 19.9479 3.21686 20.4922C3.64993 21.0365 4.2789 21.3087 5.10379 21.3087C5.83588 21.3087 6.61437 21.093 7.43926 20.6617C8.27446 20.22 9.02717 19.5627 9.69739 18.6898V15.5779C9.15091 15.4957 8.57348 15.4392 7.96513 15.4084C7.36708 15.3673 6.77935 15.3468 6.20192 15.3468C5.09864 15.3468 4.21704 15.6241 3.55713 16.1787C2.90753 16.723 2.58273 17.4984 2.58273 18.5049ZM28.6111 19.9068C28.6111 20.3998 28.6317 20.8722 28.6729 21.3241C28.7142 21.7657 28.807 22.156 28.9513 22.4949C28.6111 22.7927 28.1625 22.9417 27.6057 22.9417C26.884 22.9417 26.5231 22.4795 26.5231 21.5552V12.8511C26.5231 11.5981 26.3632 10.6944 26.0436 10.1398C25.7239 9.57489 25.1053 9.29246 24.1876 9.29246C23.3523 9.29246 22.4707 9.52868 21.5427 10.0011C20.625 10.4735 19.862 11.059 19.2536 11.7573V22.7568C18.9855 22.8184 18.6453 22.8492 18.2328 22.8492C17.7894 22.8492 17.4337 22.8184 17.1656 22.7568V7.75192L17.3512 7.56706H18.14C18.6246 7.56706 18.9288 7.69544 19.0526 7.95219C19.1866 8.19868 19.2536 8.553 19.2536 9.01517V9.64679C19.9445 8.96895 20.7694 8.42463 21.7283 8.01381C22.6975 7.59273 23.672 7.38219 24.6516 7.38219C25.6415 7.38219 26.42 7.603 26.9871 8.04462C27.5645 8.47598 27.9769 9.05625 28.2244 9.78544C28.4822 10.5044 28.6111 11.2952 28.6111 12.1579V19.9068ZM36.0789 22.7568C35.8108 22.8184 35.4705 22.8492 35.0581 22.8492C34.6353 22.8492 34.2899 22.8184 34.0218 22.7568V0.295705L34.2074 0.11084H34.9653C35.4499 0.11084 35.7541 0.239218 35.8778 0.495975C36.0119 0.742462 36.0789 1.10192 36.0789 1.57435V14.1298L37.4864 14.0527C37.7338 14.0527 37.9607 13.9244 38.1669 13.6676L41.6005 8.64544C41.8273 8.30652 42.049 8.04462 42.2655 7.85976C42.4821 7.66462 42.8223 7.56706 43.2863 7.56706C43.4823 7.56706 43.6524 7.57219 43.7967 7.58246C43.9411 7.58246 44.1112 7.5876 44.3072 7.59787L44.4927 7.84435L40.4405 13.6676C40.2343 13.9757 40.0126 14.2325 39.7754 14.4379C40.5178 14.5714 41.1159 14.8641 41.5695 15.316C42.0335 15.7679 42.4615 16.4252 42.8533 17.2879L44.0906 20.03C44.3278 20.5538 44.5701 21.0211 44.8175 21.4319C45.065 21.8325 45.3176 22.1252 45.5754 22.31C45.462 22.4744 45.2712 22.6233 45.0031 22.7568C44.7351 22.88 44.4618 22.9417 44.1834 22.9417C43.6988 22.9417 43.3431 22.803 43.1162 22.5257C42.8997 22.2381 42.6831 21.8581 42.4666 21.3857L40.9973 18.1352C40.5951 17.2417 40.1879 16.6306 39.7754 16.3019C39.363 15.9733 38.7031 15.809 37.7957 15.809C37.3626 15.809 36.7904 15.8398 36.0789 15.9014V22.7568ZM60.0012 15.2081C60.0012 16.7281 59.7589 18.0889 59.2742 19.2906C58.7999 20.4819 58.0885 21.4217 57.1398 22.1098C56.1912 22.7876 55.0158 23.1265 53.6134 23.1265C52.2008 23.1265 51.0202 22.7825 50.0716 22.0944C49.1333 21.396 48.427 20.4511 47.9526 19.2598C47.4886 18.0581 47.2566 16.7076 47.2566 15.2081C47.2566 13.6984 47.4938 12.3479 47.9681 11.1565C48.4527 9.96517 49.1642 9.02544 50.1025 8.33733C51.0511 7.63895 52.2214 7.28976 53.6134 7.28976C55.0261 7.28976 56.2067 7.63895 57.1553 8.33733C58.1039 9.02544 58.8154 9.96517 59.2897 11.1565C59.764 12.3479 60.0012 13.6984 60.0012 15.2081ZM49.4374 15.2081C49.4374 16.2352 49.5663 17.2314 49.8241 18.1968C50.0819 19.1519 50.515 19.9376 51.1233 20.5538C51.742 21.1598 52.5823 21.4627 53.6444 21.4627C54.6961 21.4627 55.5262 21.1598 56.1345 20.5538C56.7429 19.9376 57.1759 19.1519 57.4337 18.1968C57.6915 17.2314 57.8204 16.2352 57.8204 15.2081C57.8204 14.1914 57.6915 13.2054 57.4337 12.2503C57.1759 11.2849 56.7429 10.4889 56.1345 9.86246C55.5262 9.23598 54.6961 8.92273 53.6444 8.92273C52.5823 8.92273 51.742 9.23598 51.1233 9.86246C50.515 10.4889 50.0819 11.2849 49.8241 12.2503C49.5663 13.2054 49.4374 14.1914 49.4374 15.2081ZM63.6065 8.63003C63.6683 8.43489 63.7869 8.21922 63.9622 7.983C64.1478 7.74679 64.3489 7.56706 64.5654 7.44381C65.1325 7.66976 65.5862 8.01895 65.9265 8.49138C66.277 8.95354 66.5193 9.51841 66.6534 10.186C67.0246 9.41571 67.5505 8.76868 68.231 8.24489C68.9115 7.71084 69.7725 7.44381 70.8139 7.44381C70.9583 7.44381 71.149 7.45408 71.3862 7.47462C71.6337 7.49516 71.9017 7.52598 72.1905 7.56706C72.1905 7.90598 72.1544 8.25517 72.0822 8.61462C72.0203 8.97408 71.8966 9.29246 71.711 9.56976C71.546 9.54922 71.3707 9.53895 71.1851 9.53895C71.0098 9.53895 70.8397 9.53895 70.6747 9.53895C69.9736 9.53895 69.3704 9.68787 68.8651 9.98571C68.3702 10.2733 67.9526 10.643 67.6123 11.0949C67.2824 11.5365 67.0143 11.9935 66.8081 12.466V22.7568C66.54 22.8184 66.1997 22.8492 65.7872 22.8492C65.3439 22.8492 64.9881 22.8184 64.7201 22.7568V11.7727C64.7201 11.023 64.6015 10.3811 64.3643 9.84706C64.1375 9.313 63.8849 8.90733 63.6065 8.63003ZM73.8691 18.659C73.8691 16.9644 74.395 15.7217 75.4467 14.9308C76.5088 14.14 77.9059 13.7446 79.6382 13.7446C80.1744 13.7446 80.7466 13.7703 81.355 13.8217C81.9633 13.8627 82.5562 13.9346 83.1336 14.0373V12.4044C83.1336 11.2233 82.8707 10.3914 82.3448 9.90868C81.8293 9.41571 81.1384 9.16922 80.2723 9.16922C79.4165 9.16922 78.5607 9.2976 77.7048 9.55435C76.849 9.80084 76.0087 10.1089 75.1838 10.4787C74.9879 10.3144 74.8126 10.0679 74.6579 9.73922C74.5032 9.4003 74.4259 9.08706 74.4259 8.79949C75.1786 8.47084 76.0911 8.14733 77.1635 7.82895C78.2359 7.51057 79.3185 7.35138 80.4115 7.35138C82.0303 7.35138 83.2264 7.793 83.9998 8.67625C84.7731 9.55949 85.1598 10.8227 85.1598 12.466V18.813C85.1598 19.4806 85.2062 20.066 85.299 20.5692C85.3918 21.0725 85.6341 21.5089 86.0259 21.8787C85.9434 22.0841 85.8094 22.2946 85.6238 22.5103C85.4485 22.7157 85.2422 22.8698 85.0051 22.9725C84.4792 22.7465 84.0719 22.4487 83.7832 22.0789C83.5048 21.6989 83.3192 21.2522 83.2264 20.7387C82.649 21.3035 81.9427 21.8427 81.1075 22.3562C80.2826 22.8698 79.3495 23.1265 78.308 23.1265C77.3182 23.1265 76.4933 22.9057 75.8334 22.4641C75.1735 22.0225 74.6785 21.4627 74.3486 20.7849C74.0289 20.0968 73.8691 19.3881 73.8691 18.659ZM76.019 18.5049C76.019 19.2854 76.2303 19.9479 76.6531 20.4922C77.0862 21.0365 77.7151 21.3087 78.54 21.3087C79.2721 21.3087 80.0506 21.093 80.8755 20.6617C81.7107 20.22 82.4634 19.5627 83.1336 18.6898V15.5779C82.5872 15.4957 82.0097 15.4392 81.4014 15.4084C80.8033 15.3673 80.2156 15.3468 79.6382 15.3468C78.5349 15.3468 77.6533 15.6241 76.9934 16.1787C76.3438 16.723 76.019 17.4984 76.019 18.5049Z" fill="#282828"/>
</svg>
