<svg width="24" height="25" viewBox="0 0 24 25" fill="none" xmlns="http://www.w3.org/2000/svg">
    <path d="M3.64668 1.0135C1.85809 1.00747 0.40324 2.44678 0.397184 4.22828C0.391127 6.00979 1.83616 7.45888 3.62475 7.46491C5.41334 7.47094 6.86819 6.03163 6.87425 4.25013C6.8803 2.46862 5.43527 1.01953 3.64668 1.0135Z" stroke="#282828" stroke-width="0.5"/>
    <path d="M3.6433 1.96405C2.38173 1.95979 1.35556 2.975 1.35128 4.23158C1.34701 5.48815 2.36626 6.51026 3.62783 6.51451C4.8894 6.51877 5.91557 5.50356 5.91984 4.24698C5.92412 2.99041 4.90487 1.9683 3.6433 1.96405Z" stroke="#282828" stroke-width="0.5"/>
    <path d="M18.898 10.2101C18.9018 9.07116 19.8319 8.15095 20.9754 8.1548C22.1189 8.1587 23.0428 9.08513 23.0389 10.2241C23.035 11.363 22.1049 12.2832 20.9614 12.2794C19.8179 12.2755 18.894 11.3491 18.898 10.2101Z" stroke="#282828" stroke-width="0.5"/>
    <path fill-rule="evenodd" clip-rule="evenodd" d="M7.6266 21.562C7.62263 21.6239 7.62056 21.6862 7.62036 21.7491C7.61453 23.4494 8.99375 24.8325 10.7009 24.8383C12.408 24.844 13.7966 23.4703 13.8024 21.7699C13.8026 21.7063 13.8008 21.6431 13.7972 21.5805C17.8485 20.3802 20.8969 16.8531 21.3745 12.5503C21.2399 12.5734 21.1016 12.5852 20.9604 12.5847C20.924 12.5846 20.8878 12.5837 20.8518 12.582C20.3687 16.611 17.5151 19.9114 13.7237 21.0661C13.4088 19.7037 12.1859 18.6857 10.7218 18.6808C9.25694 18.6758 8.02662 19.6867 7.70326 21.048C3.55216 19.7566 0.545776 15.8905 0.561268 11.3321C0.566419 9.81622 0.905211 8.37921 1.50814 7.08972C1.36468 6.98332 1.22953 6.86645 1.10384 6.74023C0.430831 8.12887 0.0513072 9.68543 0.0457169 11.3303C0.0293445 16.1477 3.22539 20.2293 7.6266 21.562ZM6.51171 2.13961C7.81034 1.54783 9.25534 1.22011 10.7772 1.22525C15.1795 1.24009 18.9198 4.03565 20.3272 7.93646C20.493 7.89029 20.6661 7.86159 20.8444 7.85245C19.3911 3.70742 15.4379 0.727445 10.779 0.711732C9.12753 0.706186 7.56225 1.07366 6.16355 1.73455C6.2894 1.86062 6.40586 1.99603 6.51171 2.13961Z" fill="#282828"/>
</svg>
