<svg width="14" height="14" viewBox="0 0 14 14" fill="none" xmlns="http://www.w3.org/2000/svg">
    <path d="M10.3333 1.99996H13C13.1768 1.99996 13.3464 2.0702 13.4714 2.19522C13.5964 2.32025 13.6666 2.48981 13.6666 2.66663V13.3333C13.6666 13.5101 13.5964 13.6797 13.4714 13.8047C13.3464 13.9297 13.1768 14 13 14H0.99998C0.823169 14 0.653599 13.9297 0.528575 13.8047C0.403551 13.6797 0.333313 13.5101 0.333313 13.3333V2.66663C0.333313 2.48981 0.403551 2.32025 0.528575 2.19522C0.653599 2.0702 0.823169 1.99996 0.99998 1.99996H3.66665V0.666626H4.99998V1.99996H8.99998V0.666626H10.3333V1.99996ZM12.3333 5.99996V3.33329H10.3333V4.66663H8.99998V3.33329H4.99998V4.66663H3.66665V3.33329H1.66665V5.99996H12.3333ZM12.3333 7.33329H1.66665V12.6666H12.3333V7.33329ZM2.99998 8.66663H6.33331V11.3333H2.99998V8.66663Z" fill="#666666"/>
</svg>
